<mxfile host="Electron" modified="2023-07-06T09:47:57.323Z" agent="Mozilla/5.0 (Windows NT 10.0; Win64; x64) AppleWebKit/537.36 (KHTML, like Gecko) draw.io/21.5.0 Chrome/112.0.5615.204 Electron/24.5.1 Safari/537.36" etag="d3AbcQ_WybomAcJiNaEv" version="21.5.0" type="device">
  <diagram name="Page-1" id="s6RyFStk0DLegDsGYNxT">
    <mxGraphModel dx="639" dy="717" grid="1" gridSize="10" guides="1" tooltips="1" connect="1" arrows="1" fold="1" page="1" pageScale="1" pageWidth="827" pageHeight="1169" math="0" shadow="0">
      <root>
        <mxCell id="0" />
        <mxCell id="1" parent="0" />
        <mxCell id="GUVYdZcm8J257jYKCDbD-1" value="" style="ellipse;html=1;shape=startState;fillColor=#000000;strokeColor=#ff0000;" vertex="1" parent="1">
          <mxGeometry x="135" y="70" width="30" height="30" as="geometry" />
        </mxCell>
        <mxCell id="GUVYdZcm8J257jYKCDbD-2" value="" style="edgeStyle=orthogonalEdgeStyle;html=1;verticalAlign=bottom;endArrow=open;endSize=8;strokeColor=#ff0000;rounded=0;entryX=0.5;entryY=0;entryDx=0;entryDy=0;" edge="1" source="GUVYdZcm8J257jYKCDbD-1" parent="1" target="GUVYdZcm8J257jYKCDbD-4">
          <mxGeometry relative="1" as="geometry">
            <mxPoint x="155" y="130" as="targetPoint" />
          </mxGeometry>
        </mxCell>
        <mxCell id="GUVYdZcm8J257jYKCDbD-4" value="Votre année est elle divisible par 4" style="rhombus;whiteSpace=wrap;html=1;fontColor=#000000;fillColor=#ffffc0;strokeColor=#ff0000;" vertex="1" parent="1">
          <mxGeometry x="75" y="130" width="150" height="130" as="geometry" />
        </mxCell>
        <mxCell id="GUVYdZcm8J257jYKCDbD-6" value="" style="edgeStyle=orthogonalEdgeStyle;html=1;align=left;verticalAlign=top;endArrow=open;endSize=8;strokeColor=#ff0000;rounded=0;" edge="1" parent="1">
          <mxGeometry x="0.1429" y="-30" relative="1" as="geometry">
            <mxPoint x="149.5" y="310" as="targetPoint" />
            <mxPoint x="149.5" y="300" as="sourcePoint" />
            <Array as="points">
              <mxPoint x="149.5" y="260" />
              <mxPoint x="149.5" y="260" />
            </Array>
            <mxPoint as="offset" />
          </mxGeometry>
        </mxCell>
        <mxCell id="GUVYdZcm8J257jYKCDbD-7" value="Votre année n&#39;est pas bisextile" style="html=1;whiteSpace=wrap;" vertex="1" parent="1">
          <mxGeometry x="340" y="490" width="110" height="50" as="geometry" />
        </mxCell>
        <mxCell id="GUVYdZcm8J257jYKCDbD-10" value="Votre Année est elle divible par 100" style="rhombus;whiteSpace=wrap;html=1;fontColor=#000000;fillColor=#ffffc0;strokeColor=#ff0000;" vertex="1" parent="1">
          <mxGeometry x="75" y="310" width="150" height="120" as="geometry" />
        </mxCell>
        <mxCell id="GUVYdZcm8J257jYKCDbD-12" value="" style="edgeStyle=orthogonalEdgeStyle;html=1;align=left;verticalAlign=top;endArrow=open;endSize=8;strokeColor=#ff0000;rounded=0;exitX=0.5;exitY=1;exitDx=0;exitDy=0;entryX=0.5;entryY=0;entryDx=0;entryDy=0;" edge="1" source="GUVYdZcm8J257jYKCDbD-10" parent="1" target="GUVYdZcm8J257jYKCDbD-22">
          <mxGeometry x="-1" y="120" relative="1" as="geometry">
            <mxPoint x="150" y="490" as="targetPoint" />
            <mxPoint x="155" y="460" as="sourcePoint" />
            <mxPoint x="-30" y="-80" as="offset" />
          </mxGeometry>
        </mxCell>
        <mxCell id="GUVYdZcm8J257jYKCDbD-16" value="" style="edgeStyle=orthogonalEdgeStyle;rounded=0;orthogonalLoop=1;jettySize=auto;html=1;" edge="1" parent="1" source="GUVYdZcm8J257jYKCDbD-14" target="GUVYdZcm8J257jYKCDbD-15">
          <mxGeometry relative="1" as="geometry" />
        </mxCell>
        <mxCell id="GUVYdZcm8J257jYKCDbD-14" value="" style="line;strokeWidth=1;fillColor=none;align=left;verticalAlign=middle;spacingTop=-1;spacingLeft=3;spacingRight=3;rotatable=0;labelPosition=right;points=[];portConstraint=eastwest;strokeColor=inherit;" vertex="1" parent="1">
          <mxGeometry x="225" y="191" width="40" height="8" as="geometry" />
        </mxCell>
        <mxCell id="GUVYdZcm8J257jYKCDbD-15" value="" style="line;strokeWidth=1;fillColor=none;align=left;verticalAlign=middle;spacingTop=-1;spacingLeft=3;spacingRight=3;rotatable=0;labelPosition=right;points=[];portConstraint=eastwest;strokeColor=inherit;" vertex="1" parent="1">
          <mxGeometry x="345" y="191" width="40" height="8" as="geometry" />
        </mxCell>
        <mxCell id="GUVYdZcm8J257jYKCDbD-18" value="" style="endArrow=classic;html=1;rounded=0;entryX=0.445;entryY=-0.06;entryDx=0;entryDy=0;entryPerimeter=0;" edge="1" parent="1" target="GUVYdZcm8J257jYKCDbD-7">
          <mxGeometry width="50" height="50" relative="1" as="geometry">
            <mxPoint x="390" y="190" as="sourcePoint" />
            <mxPoint x="420" y="470" as="targetPoint" />
            <Array as="points">
              <mxPoint x="390" y="370" />
            </Array>
          </mxGeometry>
        </mxCell>
        <mxCell id="GUVYdZcm8J257jYKCDbD-20" value="" style="endArrow=none;html=1;rounded=0;" edge="1" parent="1">
          <mxGeometry width="50" height="50" relative="1" as="geometry">
            <mxPoint x="388" y="670" as="sourcePoint" />
            <mxPoint x="390" y="540" as="targetPoint" />
          </mxGeometry>
        </mxCell>
        <mxCell id="GUVYdZcm8J257jYKCDbD-21" value="" style="endArrow=none;html=1;rounded=0;" edge="1" parent="1">
          <mxGeometry width="50" height="50" relative="1" as="geometry">
            <mxPoint x="390" y="670" as="sourcePoint" />
            <mxPoint x="230" y="670" as="targetPoint" />
          </mxGeometry>
        </mxCell>
        <mxCell id="GUVYdZcm8J257jYKCDbD-22" value="Votre année est divisible par 400" style="rhombus;whiteSpace=wrap;html=1;fillColor=#fff2cc;strokeColor=#d6b656;" vertex="1" parent="1">
          <mxGeometry x="80" y="470" width="140" height="110" as="geometry" />
        </mxCell>
        <mxCell id="GUVYdZcm8J257jYKCDbD-23" value="" style="endArrow=classic;html=1;rounded=0;exitX=1;exitY=0.5;exitDx=0;exitDy=0;entryX=0;entryY=0.75;entryDx=0;entryDy=0;" edge="1" parent="1" source="GUVYdZcm8J257jYKCDbD-22" target="GUVYdZcm8J257jYKCDbD-7">
          <mxGeometry width="50" height="50" relative="1" as="geometry">
            <mxPoint x="310" y="400" as="sourcePoint" />
            <mxPoint x="360" y="350" as="targetPoint" />
          </mxGeometry>
        </mxCell>
        <mxCell id="GUVYdZcm8J257jYKCDbD-24" value="non" style="text;html=1;align=center;verticalAlign=middle;resizable=0;points=[];autosize=1;strokeColor=none;fillColor=none;" vertex="1" parent="1">
          <mxGeometry x="230" y="488" width="40" height="30" as="geometry" />
        </mxCell>
        <mxCell id="GUVYdZcm8J257jYKCDbD-25" value="non" style="text;html=1;align=center;verticalAlign=middle;resizable=0;points=[];autosize=1;strokeColor=none;fillColor=none;glass=1;" vertex="1" parent="1">
          <mxGeometry x="100" y="430" width="40" height="30" as="geometry" />
        </mxCell>
        <mxCell id="GUVYdZcm8J257jYKCDbD-26" value="oui" style="text;html=1;align=center;verticalAlign=middle;resizable=0;points=[];autosize=1;strokeColor=none;fillColor=none;" vertex="1" parent="1">
          <mxGeometry x="235" y="330" width="40" height="30" as="geometry" />
        </mxCell>
        <mxCell id="GUVYdZcm8J257jYKCDbD-27" value="oui" style="text;html=1;align=center;verticalAlign=middle;resizable=0;points=[];autosize=1;strokeColor=none;fillColor=none;" vertex="1" parent="1">
          <mxGeometry x="100" y="258" width="40" height="30" as="geometry" />
        </mxCell>
        <mxCell id="GUVYdZcm8J257jYKCDbD-28" value="non" style="text;html=1;align=center;verticalAlign=middle;resizable=0;points=[];autosize=1;strokeColor=none;fillColor=none;" vertex="1" parent="1">
          <mxGeometry x="260" y="158" width="40" height="30" as="geometry" />
        </mxCell>
        <mxCell id="GUVYdZcm8J257jYKCDbD-29" value="" style="endArrow=classic;html=1;rounded=0;exitX=0.5;exitY=1;exitDx=0;exitDy=0;" edge="1" parent="1" source="GUVYdZcm8J257jYKCDbD-22" target="GUVYdZcm8J257jYKCDbD-31">
          <mxGeometry width="50" height="50" relative="1" as="geometry">
            <mxPoint x="310" y="400" as="sourcePoint" />
            <mxPoint x="150" y="600" as="targetPoint" />
          </mxGeometry>
        </mxCell>
        <mxCell id="GUVYdZcm8J257jYKCDbD-30" value="" style="endArrow=classic;html=1;rounded=0;" edge="1" parent="1">
          <mxGeometry width="50" height="50" relative="1" as="geometry">
            <mxPoint x="150" y="670" as="sourcePoint" />
            <mxPoint x="230" y="670" as="targetPoint" />
          </mxGeometry>
        </mxCell>
        <mxCell id="GUVYdZcm8J257jYKCDbD-31" value="Votre année est bissextile" style="rounded=0;whiteSpace=wrap;html=1;" vertex="1" parent="1">
          <mxGeometry x="90" y="600" width="120" height="60" as="geometry" />
        </mxCell>
        <mxCell id="GUVYdZcm8J257jYKCDbD-32" value="" style="endArrow=classic;html=1;rounded=0;exitX=0.5;exitY=1;exitDx=0;exitDy=0;" edge="1" parent="1" source="GUVYdZcm8J257jYKCDbD-31">
          <mxGeometry width="50" height="50" relative="1" as="geometry">
            <mxPoint x="310" y="400" as="sourcePoint" />
            <mxPoint x="150" y="670" as="targetPoint" />
          </mxGeometry>
        </mxCell>
        <mxCell id="GUVYdZcm8J257jYKCDbD-33" value="" style="ellipse;html=1;shape=endState;fillColor=#000000;strokeColor=#ff0000;" vertex="1" parent="1">
          <mxGeometry x="225" y="710" width="30" height="30" as="geometry" />
        </mxCell>
        <mxCell id="GUVYdZcm8J257jYKCDbD-34" value="" style="endArrow=classic;html=1;rounded=0;entryX=0.5;entryY=0;entryDx=0;entryDy=0;" edge="1" parent="1" target="GUVYdZcm8J257jYKCDbD-33">
          <mxGeometry width="50" height="50" relative="1" as="geometry">
            <mxPoint x="240" y="670" as="sourcePoint" />
            <mxPoint x="240" y="700" as="targetPoint" />
          </mxGeometry>
        </mxCell>
        <mxCell id="GUVYdZcm8J257jYKCDbD-35" value="oui" style="text;html=1;align=center;verticalAlign=middle;resizable=0;points=[];autosize=1;strokeColor=none;fillColor=none;" vertex="1" parent="1">
          <mxGeometry x="100" y="568" width="40" height="30" as="geometry" />
        </mxCell>
        <mxCell id="GUVYdZcm8J257jYKCDbD-36" value="" style="endArrow=classic;html=1;rounded=0;exitX=1;exitY=0.5;exitDx=0;exitDy=0;" edge="1" parent="1" source="GUVYdZcm8J257jYKCDbD-10">
          <mxGeometry width="50" height="50" relative="1" as="geometry">
            <mxPoint x="310" y="400" as="sourcePoint" />
            <mxPoint x="390" y="370" as="targetPoint" />
          </mxGeometry>
        </mxCell>
      </root>
    </mxGraphModel>
  </diagram>
</mxfile>
